<svg width="25" height="25" viewBox="0 0 25 25" fill="none" xmlns="http://www.w3.org/2000/svg">
<path d="M21.8751 10.4167H13.1772C12.323 7.98958 10.0105 6.25 7.29175 6.25C3.84383 6.25 1.04175 9.05208 1.04175 12.5C1.04175 15.9479 3.84383 18.75 7.29175 18.75C10.0105 18.75 12.323 17.0104 13.1772 14.5833H13.5417L15.6251 16.6667L17.7084 14.5833L19.7917 16.6667L23.9584 12.4583L21.8751 10.4167ZM7.29175 15.625C5.573 15.625 4.16675 14.2187 4.16675 12.5C4.16675 10.7812 5.573 9.375 7.29175 9.375C9.0105 9.375 10.4167 10.7812 10.4167 12.5C10.4167 14.2187 9.0105 15.625 7.29175 15.625Z" fill="#212121"/>
</svg>
